<svg width="30" height="30" viewBox="0 0 30 30" fill="none" xmlns="http://www.w3.org/2000/svg">
<path d="M18.75 14.9997L14.1919 19.5578C13.9479 19.8018 13.5521 19.8018 13.3081 19.5578L11.25 17.4997" stroke="white" stroke-width="2" stroke-linecap="round"/>
<path d="M3.75 11.2497H26.25" stroke="white" stroke-width="2" stroke-linecap="round"/>
<path d="M7.5 6.24969V5.62469C7.5 4.58916 8.33947 3.74969 9.375 3.74969C10.4105 3.74969 11.25 4.58916 11.25 5.62469V6.24969M18.75 6.24969V5.62469C18.75 4.58916 19.5895 3.74969 20.625 3.74969C21.6605 3.74969 22.5 4.58916 22.5 5.62469V6.24969M7.75 26.2497H22.25C23.6501 26.2497 24.3502 26.2497 24.885 25.9772C25.3554 25.7375 25.7378 25.3551 25.9775 24.8847C26.25 24.3499 26.25 23.6498 26.25 22.2497V10.2497C26.25 8.84956 26.25 8.1495 25.9775 7.61472C25.7378 7.14431 25.3554 6.76186 24.885 6.52218C24.3502 6.24969 23.6501 6.24969 22.25 6.24969H7.75C6.34987 6.24969 5.6498 6.24969 5.11502 6.52218C4.64462 6.76186 4.26217 7.14431 4.02248 7.61472C3.75 8.1495 3.75 8.84956 3.75 10.2497V22.2497C3.75 23.6498 3.75 24.3499 4.02248 24.8847C4.26217 25.3551 4.64462 25.7375 5.11502 25.9772C5.6498 26.2497 6.34987 26.2497 7.75 26.2497Z" stroke="white" stroke-width="2" stroke-linecap="round"/>
</svg>
