<svg width="32" height="32" viewBox="0 0 32 32" fill="none" xmlns="http://www.w3.org/2000/svg">
<path d="M4.72279 30.2566L5.17678 29.3656L5.17678 29.3656L4.72279 30.2566ZM1.74314 27.2769L2.63414 26.8229L2.63414 26.8229L1.74314 27.2769ZM30.2569 27.2769L29.3659 26.8229L29.3659 26.8229L30.2569 27.2769ZM27.2772 30.2566L26.8232 29.3656L26.8232 29.3656L27.2772 30.2566ZM27.2772 1.74283L26.8232 2.63384L26.8232 2.63384L27.2772 1.74283ZM30.2569 4.72249L29.3659 5.17648L29.3659 5.17648L30.2569 4.72249ZM4.72279 1.74283L5.17678 2.63384L5.17678 2.63384L4.72279 1.74283ZM1.74314 4.72249L2.63414 5.17648L2.63414 5.17648L1.74314 4.72249ZM15 24.1815C15 24.7338 15.4477 25.1815 16 25.1815C16.5523 25.1815 17 24.7338 17 24.1815H15ZM17 7.81788C17 7.26559 16.5523 6.81788 16 6.81788C15.4477 6.81788 15 7.26559 15 7.81788H17ZM8.18182 24.1815C8.18182 24.7338 8.62953 25.1815 9.18182 25.1815C9.7341 25.1815 10.1818 24.7338 10.1818 24.1815L8.18182 24.1815ZM10.1818 13.2724C10.1818 12.7201 9.7341 12.2724 9.18182 12.2724C8.62953 12.2724 8.18182 12.7201 8.18182 13.2724L10.1818 13.2724ZM21.8182 24.1815C21.8182 24.7338 22.2659 25.1815 22.8182 25.1815C23.3705 25.1815 23.8182 24.7338 23.8182 24.1815H21.8182ZM23.8182 18.727C23.8182 18.1747 23.3705 17.727 22.8182 17.727C22.2659 17.727 21.8182 18.1747 21.8182 18.727H23.8182ZM11.9091 1.99969H20.0909V-0.000305176H11.9091V1.99969ZM30 11.9088V20.0906H32V11.9088H30ZM20.0909 29.9997H11.9091V31.9997H20.0909V29.9997ZM2 20.0906V11.9088H0V20.0906H2ZM11.9091 29.9997C9.98332 29.9997 8.59913 29.9989 7.51235 29.9101C6.43725 29.8223 5.74156 29.6533 5.17678 29.3656L4.2688 31.1476C5.16251 31.6029 6.1507 31.8055 7.34949 31.9035C8.5366 32.0005 10.0163 31.9997 11.9091 31.9997V29.9997ZM0 20.0906C0 21.9834 -0.000777706 23.4631 0.0962133 24.6502C0.194158 25.849 0.396762 26.8372 0.852131 27.7309L2.63414 26.8229C2.34638 26.2581 2.17741 25.5624 2.08957 24.4873C2.00078 23.4006 2 22.0164 2 20.0906H0ZM5.17678 29.3656C4.08202 28.8077 3.19195 27.9177 2.63414 26.8229L0.852131 27.7309C1.60169 29.202 2.79772 30.398 4.2688 31.1476L5.17678 29.3656ZM30 20.0906C30 22.0164 29.9992 23.4006 29.9104 24.4873C29.8226 25.5624 29.6536 26.2581 29.3659 26.8229L31.1479 27.7309C31.6032 26.8372 31.8058 25.849 31.9038 24.6502C32.0008 23.4631 32 21.9834 32 20.0906H30ZM20.0909 31.9997C21.9837 31.9997 23.4634 32.0005 24.6505 31.9035C25.8493 31.8055 26.8375 31.6029 27.7312 31.1476L26.8232 29.3656C26.2584 29.6533 25.5628 29.8223 24.4876 29.9101C23.4009 29.9989 22.0167 29.9997 20.0909 29.9997V31.9997ZM29.3659 26.8229C28.808 27.9177 27.918 28.8077 26.8232 29.3656L27.7312 31.1476C29.2023 30.398 30.3983 29.202 31.1479 27.7309L29.3659 26.8229ZM20.0909 1.99969C22.0167 1.99969 23.4009 2.00047 24.4876 2.08927C25.5628 2.17711 26.2584 2.34607 26.8232 2.63384L27.7312 0.851826C26.8375 0.396456 25.8493 0.193853 24.6505 0.0959081C23.4634 -0.00108288 21.9837 -0.000305176 20.0909 -0.000305176V1.99969ZM32 11.9088C32 10.016 32.0008 8.5363 31.9038 7.34919C31.8058 6.1504 31.6032 5.16221 31.1479 4.2685L29.3659 5.17648C29.6536 5.74125 29.8226 6.43694 29.9104 7.51205C29.9992 8.59883 30 9.98302 30 11.9088H32ZM26.8232 2.63384C27.918 3.19165 28.808 4.08172 29.3659 5.17648L31.1479 4.2685C30.3983 2.79741 29.2023 1.60138 27.7312 0.851826L26.8232 2.63384ZM11.9091 -0.000305176C10.0163 -0.000305176 8.5366 -0.00108288 7.34949 0.0959081C6.1507 0.193853 5.16251 0.396456 4.2688 0.851826L5.17678 2.63384C5.74156 2.34607 6.43725 2.17711 7.51235 2.08927C8.59913 2.00047 9.98332 1.99969 11.9091 1.99969V-0.000305176ZM2 11.9088C2 9.98302 2.00078 8.59883 2.08957 7.51205C2.17741 6.43694 2.34638 5.74125 2.63414 5.17648L0.852131 4.2685C0.396762 5.16221 0.194158 6.1504 0.0962133 7.34919C-0.000777706 8.5363 0 10.016 0 11.9088H2ZM4.2688 0.851826C2.79772 1.60138 1.60169 2.79741 0.852131 4.2685L2.63414 5.17648C3.19195 4.08172 4.08202 3.19165 5.17678 2.63384L4.2688 0.851826ZM17 24.1815V7.81788H15V24.1815H17ZM10.1818 24.1815L10.1818 13.2724L8.18182 13.2724L8.18182 24.1815L10.1818 24.1815ZM23.8182 24.1815V18.727H21.8182V24.1815H23.8182Z" fill="white"/>
</svg>
