<svg width="32" height="32" viewBox="0 0 32 32" fill="none" xmlns="http://www.w3.org/2000/svg">
<path d="M31 5.49969C31 7.98498 24.2843 9.99969 16 9.99969C7.71573 9.99969 1 7.98498 1 5.49969M31 5.49969C31 3.01441 24.2843 0.999695 16 0.999695C7.71573 0.999695 1 3.01441 1 5.49969M31 5.49969V26.4997C31 28.985 24.2843 30.9997 16 30.9997C7.71573 30.9997 1 28.985 1 26.4997V5.49969M31 15.9997C31 18.485 24.2843 20.4997 16 20.4997C7.71573 20.4997 1 18.485 1 15.9997" stroke="white" stroke-width="2"/>
</svg>
