<svg width="32" height="32" viewBox="0 0 32 32" fill="none" xmlns="http://www.w3.org/2000/svg">
<path d="M22 15.9997C22 19.3134 19.3137 21.9997 16 21.9997C12.6863 21.9997 10 19.3134 10 15.9997C10 12.686 12.6863 9.99969 16 9.99969C19.3137 9.99969 22 12.686 22 15.9997Z" stroke="white" stroke-width="2"/>
<path d="M19 3.27174C19 2.01693 17.9828 0.999695 16.728 0.999695H15.272C14.0172 0.999695 13 2.0169 13 3.27169C13 5.29582 10.5527 6.30946 9.12142 4.87819C8.23413 3.9909 6.79554 3.99088 5.90826 4.87817L4.87884 5.90759C3.99151 6.79492 3.99151 8.23356 4.87884 9.12089C6.31021 10.5523 5.29644 12.9997 3.27217 12.9997C2.01729 12.9997 1 14.017 1 15.2719V16.7276C1 17.9825 2.01724 18.9997 3.27206 18.9997C5.29623 18.9997 6.30996 21.447 4.87866 22.8783C3.99137 23.7656 3.99137 25.2042 4.87866 26.0914L5.90813 27.1209C6.79543 28.0082 8.23403 28.0082 9.12133 27.1209C10.5527 25.6896 13 26.7034 13 28.7276C13 29.9824 14.0173 30.9997 15.2721 30.9997H16.7278C17.9827 30.9997 19 29.9824 19 28.7275C19 26.7033 21.4474 25.6895 22.8788 27.1208C23.7661 28.0081 25.2047 28.0081 26.092 27.1208L27.1215 26.0914C28.0088 25.2041 28.0087 23.7655 27.1215 22.8782C25.6902 21.447 26.7039 18.9997 28.728 18.9997C29.9828 18.9997 31 17.9825 31 16.7277V15.2718C31 14.017 29.9827 12.9997 28.7279 12.9997C26.7037 12.9997 25.6899 10.5523 27.1213 9.12095C28.0086 8.23363 28.0086 6.79499 27.1213 5.90768L26.0919 4.87827C25.2046 3.99097 23.766 3.99098 22.8787 4.87829C21.4474 6.3096 19 5.29592 19 3.27174Z" stroke="white" stroke-width="2"/>
</svg>
